PathFileType	4	(X/Y/Z)	Patient4_TMGait_0pt3_03_right_13.trc.trc
DataRate	CameraRate	NumFrames	NumMarkers	Units	OrigDataRate	OrigDataStartFrame	OrigNumFrames
54.474708171206	54.474708171206	4	33	mm	54.474708171206	53	       141
Frame#	Time	Sacral			L.Shoulder			Chest			R.Shoulder			Neck			R.ASIS			L.ASIS			R.Thigh.Superior			R.Thigh.Lateral			R.Thigh.Inferior			R.Patella			L.Thigh.Superior			L.Thigh.Lateral			L.Thigh.Inferior			L.Patella			L.Shank.Superior			L.Shank.Lateral			L.Shank.Inferior			R.Shank.Superior			R.Shank.Lateral			R.Shank.Inferior			R.Heel			R.Midfoot.Superior			R.Midfoot.Lateral			R.Toe			L.Heel			L.Midfoot.Lateral			L.Midfoot.Superior			L.Toe			L.Elbow			L.Wrist			R.Elbow			R.Wrist			
		X1	Y1	Z1	X2	Y2	Z2	X3	Y3	Z3	X4	Y4	Z4	X5	Y5	Z5	X6	Y6	Z6	X7	Y7	Z7	X8	Y8	Z8	X9	Y9	Z9	X10	Y10	Z10	X11	Y11	Z11	X12	Y12	Z12	X13	Y13	Z13	X14	Y14	Z14	X15	Y15	Z15	X16	Y16	Z16	X17	Y17	Z17	X18	Y18	Z18	X19	Y19	Z19	X20	Y20	Z20	X21	Y21	Z21	X22	Y22	Z22	X23	Y23	Z23	X24	Y24	Z24	X25	Y25	Z25	X26	Y26	Z26	X27	Y27	Z27	X28	Y28	Z28	X29	Y29	Z29	X30	Y30	Z30	X31	Y31	Z31	X32	Y32	Z32	X33	Y33	Z33	

53	25.594571428571	732.447809394819	995.388284052184	554.216452817802	922.738858876906	1418.980593961505	366.512575902336	1025.803174732758	1347.544391146356	525.885969144619	950.527578501308	1425.179156663144	701.456570817118	911.947218211592	1482.519538214450	525.436112726368	969.379885687729	927.006114799230	659.412031304952	938.745782136970	952.441619425691	388.042437837582	1016.248287188024	730.518755765224	614.321602797776	941.746319458388	614.762394161348	669.346183560759	1015.448973447939	568.659359414812	581.120914265256	1017.964319416012	473.124086020794	581.979987203586	1024.416869192408	771.189415541218	414.330349309674	983.128761109158	645.247495971212	333.702162447858	1085.908163728977	584.085977471202	398.486639190407	1099.692332842052	495.228137253859	385.358982947321	1034.819667414388	428.930702372360	372.916519929881	893.128147849234	381.487984089509	330.010402358805	893.433158467030	246.972012289108	371.978314955511	971.830378949478	387.213265345742	589.081192544558	890.512092058168	293.896324672967	655.453299122450	907.279619483135	196.632490888632	587.035916205116	747.004226880525	45.124531030657	567.405396880372	920.335642303653	95.762669325641	594.454163429277	833.572162102691	37.660565336349	637.400612314794	1041.130345565887	41.251168901051	617.119085813206	712.947350473193	167.603437532306	418.426932671876	764.924512746140	132.765164518791	329.638078737216	870.631405710277	144.351227429955	343.140170245496	950.155937004011	39.866787251120	296.839921387548	867.421399349947	1065.400772243608	263.448353454876	905.048731791922	807.534133688881	253.818131525265	929.509759210221	1087.907388821342	844.702111142990	1142.484204006734	943.609769140974	858.322231611290	
54	25.612928571429	732.285613147647	996.040142039945	557.305876716385	920.337282178168	1419.195355271962	366.975661640366	1025.900996637033	1347.615629182531	524.623812921377	953.661269972244	1425.432515113046	701.442114936486	912.225382440009	1482.717219665280	525.924680391227	970.086999979012	926.789174962349	659.053974141647	936.009256386400	952.854146851979	388.156603408658	1014.730797569662	729.625848525685	613.622100632316	939.942299650237	614.435156123025	669.516493161793	1012.344069847962	567.853668653682	580.500292460168	1014.115170533086	472.412077507362	581.361355250362	1022.523214572753	773.105676060946	414.084649596956	981.896900507861	646.923904500212	333.501500130550	1085.543793326862	586.835031070242	397.557995501248	1101.007911090675	499.042118656215	384.250029596623	1038.998198505289	431.258452651441	371.934300246722	899.772838080019	376.950433732101	330.001609034598	907.530159369456	242.474564931424	371.434565741497	967.556313449643	386.713471545704	588.775659925289	886.261663972965	293.691085360171	655.509404640285	902.309726500718	196.431737011687	587.008975035274	741.481148826821	45.197789258293	567.530048683147	914.851447554598	95.739286670368	594.544210180164	828.052610469371	37.656759334185	637.499670818691	1035.604971432364	41.128881756772	617.146300913835	732.188750520475	152.582795216351	419.052789987867	785.338137698472	121.782532783700	329.534935029992	890.131706218954	139.612210134161	342.340171042734	975.379960048153	40.835289990361	294.571086684070	853.944099317773	1067.168126632436	265.798493326989	881.160652152387	807.999879782979	257.308298993714	938.296242032176	1088.102416018178	844.733828035158	1160.012578814756	958.928438182900	853.474991061666	
55	25.631285714286	732.132112150868	997.139893736170	560.159294293431	917.984326080193	1419.829565580509	367.315124606535	1026.113597603780	1347.944505166244	523.063742333390	957.099180465028	1425.922577932649	701.144790402040	912.656021160044	1483.207373371071	526.289339897735	970.713547856607	926.810889019630	658.370366268021	933.283334126084	953.558997670105	387.963008012408	1012.718577098083	728.824327233220	612.798907943221	937.470009821875	614.383897141141	669.700648148477	1008.440153233903	567.176001771040	579.914877316150	1009.372484433384	471.964000253831	580.847188963973	1020.109944200578	774.881559149257	413.615792765079	979.767712785734	648.514466023011	333.075464283483	1084.029843923437	589.218957163147	396.413135513351	1101.082894603152	502.768957471170	383.016737870942	1042.357492292683	433.585061001959	370.777531035565	906.515494259445	371.766168306905	329.260644604572	922.252715087131	237.783692042704	370.376115233927	962.584980129742	386.466860273179	588.569676216114	881.494288922951	293.591233111472	655.646056954655	897.036413212692	196.365817318153	587.056722697426	735.927153349801	45.252500271149	567.673157630963	909.322862075700	95.706474731323	594.624394373529	822.515158550195	37.640045863225	637.617985783276	1030.058134425013	41.047911021290	617.162201988363	752.915813214723	136.966450537514	418.583341811039	807.489784309596	110.303252000183	328.626103365666	910.931551703509	134.674875642591	341.081435930653	1002.097666210061	42.120934473435	292.408976383364	840.532033351623	1069.836366193218	267.875612263904	858.744861664009	809.915878427545	260.751998531759	947.238134622892	1088.676323031587	844.374837463683	1176.596818095484	975.447013732307	847.726174526685	
56	25.649642857143	731.971321368742	998.633688141407	562.742721905250	915.709857464738	1420.813872248460	367.517110640043	1026.434941974929	1348.482336376781	521.222039929766	960.798887915424	1426.617936762465	700.550412463070	913.240994800350	1483.938351718063	526.512999936912	971.244602528609	927.026538978281	657.390825027145	930.598384007387	954.514976605498	387.482942902174	1010.259277206275	728.107723075340	611.887059219778	934.389915405451	614.580787684857	669.898263471655	1003.828901524860	566.617995233573	579.389955413017	1003.844595308938	471.759250095309	580.454134750733	1017.233358335670	776.459485183991	412.968601912918	976.820010404896	649.970572031281	332.452952654899	1081.417286532034	591.159658947467	395.131941913022	1099.952030580770	506.325628073498	381.752713151700	1044.874615092296	435.898265043762	369.537202132672	913.383987496339	366.168034399297	327.798758236470	937.389135952515	233.216652200403	368.879398212439	957.015066422102	386.454833470162	588.472456643826	876.267563158641	293.591586757465	655.858840926193	891.496244810604	196.422431536439	587.171577820099	730.344948440560	45.292346572065	567.830155965178	903.742990261385	95.649587785248	594.667071765973	816.961723630479	37.613005654983	637.751055001880	1024.491743068119	41.002580818377	617.168107114346	774.847934075728	121.450361349307	417.009456239193	831.106358607048	98.888462897962	326.972680579520	932.724556930087	129.906702858861	339.473369259900	1029.806060180522	43.916578657797	290.618494483883	827.399276739233	1073.269898939792	269.742453870439	837.915008255268	812.980032776025	264.087506744782	956.356068886198	1089.598171055104	843.629964608076	1192.135496553005	992.973673858454	841.158365185245	
